[Header]
FileType HTR
DataType HTRS
FileVersion 1
NumSegments 64
NumFrames 4
DataFrameRate 30
EulerRotationOrder ZYX
CalibrationUnits mm
RotationUnits Degrees
GlobalAxisofGravity Y
BoneLengthAxis Y
ScaleFactor 1.0
[SegmentNames&Hierarchy]
Hips	GLOBAL
Spine	Hips
Spine1	Spine
Spine2	Spine1
Neck	Spine2
Head	Neck
LeftEye	Head
RightEye	Head
LeftShoulder	Spine2
LeftArm	LeftShoulder
LeftForeArm	LeftArm
LeftHand	LeftForeArm
LeftHandThumb1	LeftHand
LeftHandThumb2	LeftHandThumb1
LeftHandThumb3	LeftHandThumb2
LeftHandThumb4	LeftHandThumb3
LeftHandIndex1	LeftHand
LeftHandIndex2	LeftHandIndex1
LeftHandIndex3	LeftHandIndex2
LeftHandIndex4	LeftHandIndex3
LeftHandMiddle1	LeftHand
LeftHandMiddle2	LeftHandMiddle1
LeftHandMiddle3	LeftHandMiddle2
LeftHandMiddle4	LeftHandMiddle3
LeftHandRing1	LeftHand
LeftHandRing2	LeftHandRing1
LeftHandRing3	LeftHandRing2
LeftHandRing4	LeftHandRing3
LeftHandPinky1	LeftHand
LeftHandPinky2	LeftHandPinky1
LeftHandPinky3	LeftHandPinky2
LeftHandPinky4	LeftHandPinky3
RightShoulder	Spine2
RightArm	RightShoulder
RightForeArm	RightArm
RightHand	RightForeArm
RightHandPinky1	RightHand
RightHandPinky2	RightHandPinky1
RightHandPinky3	RightHandPinky2
RightHandPinky4	RightHandPinky3
RightHandRing1	RightHand
RightHandRing2	RightHandRing1
RightHandRing3	RightHandRing2
RightHandRing4	RightHandRing3
RightHandMiddle1	RightHand
RightHandMiddle2	RightHandMiddle1
RightHandMiddle3	RightHandMiddle2
RightHandMiddle4	RightHandMiddle3
RightHandIndex1	RightHand
RightHandIndex2	RightHandIndex1
RightHandIndex3	RightHandIndex2
RightHandIndex4	RightHandIndex3
RightHandThumb1	RightHand
RightHandThumb2	RightHandThumb1
RightHandThumb3	RightHandThumb2
RightHandThumb4	RightHandThumb3
LeftUpLeg	Hips
LeftLeg	LeftUpLeg
LeftFoot	LeftLeg
LeftToeBase	LeftFoot
RightUpLeg	Hips
RightLeg	RightUpLeg
RightFoot	RightLeg
RightToeBase	RightFoot
[BasePosition]
Hips	0	0	0	0	0	0	1
Spine	0	0	0	0	0	0	1
Spine1	0	0	0	0	0	0	1
Spine2	0	0	0	0	0	0	1
Neck	0	0	0	0	0	0	1
Head	0	0	0	0	0	0	1
LeftEye	0	0	0	0	0	0	1
RightEye	0	0	0	0	0	0	1
LeftShoulder	0	0	0	0	0	0	1
LeftArm	0	0	0	0	0	0	1
LeftForeArm	0	0	0	0	0	0	1
LeftHand	0	0	0	0	0	0	1
LeftHandThumb1	0	0	0	0	0	0	1
LeftHandThumb2	0	0	0	0	0	0	1
LeftHandThumb3	0	0	0	0	0	0	1
LeftHandThumb4	0	0	0	0	0	0	1
LeftHandIndex1	0	0	0	0	0	0	1
LeftHandIndex2	0	0	0	0	0	0	1
LeftHandIndex3	0	0	0	0	0	0	1
LeftHandIndex4	0	0	0	0	0	0	1
LeftHandMiddle1	0	0	0	0	0	0	1
LeftHandMiddle2	0	0	0	0	0	0	1
LeftHandMiddle3	0	0	0	0	0	0	1
LeftHandMiddle4	0	0	0	0	0	0	1
LeftHandRing1	0	0	0	0	0	0	1
LeftHandRing2	0	0	0	0	0	0	1
LeftHandRing3	0	0	0	0	0	0	1
LeftHandRing4	0	0	0	0	0	0	1
LeftHandPinky1	0	0	0	0	0	0	1
LeftHandPinky2	0	0	0	0	0	0	1
LeftHandPinky3	0	0	0	0	0	0	1
LeftHandPinky4	0	0	0	0	0	0	1
RightShoulder	0	0	0	0	0	0	1
RightArm	0	0	0	0	0	0	1
RightForeArm	0	0	0	0	0	0	1
RightHand	0	0	0	0	0	0	1
RightHandPinky1	0	0	0	0	0	0	1
RightHandPinky2	0	0	0	0	0	0	1
RightHandPinky3	0	0	0	0	0	0	1
RightHandPinky4	0	0	0	0	0	0	1
RightHandRing1	0	0	0	0	0	0	1
RightHandRing2	0	0	0	0	0	0	1
RightHandRing3	0	0	0	0	0	0	1
RightHandRing4	0	0	0	0	0	0	1
RightHandMiddle1	0	0	0	0	0	0	1
RightHandMiddle2	0	0	0	0	0	0	1
RightHandMiddle3	0	0	0	0	0	0	1
RightHandMiddle4	0	0	0	0	0	0	1
RightHandIndex1	0	0	0	0	0	0	1
RightHandIndex2	0	0	0	0	0	0	1
RightHandIndex3	0	0	0	0	0	0	1
RightHandIndex4	0	0	0	0	0	0	1
RightHandThumb1	0	0	0	0	0	0	1
RightHandThumb2	0	0	0	0	0	0	1
RightHandThumb3	0	0	0	0	0	0	1
RightHandThumb4	0	0	0	0	0	0	1
LeftUpLeg	0	0	0	0	0	0	1
LeftLeg	0	0	0	0	0	0	1
LeftFoot	0	0	0	0	0	0	1
LeftToeBase	0	0	0	0	0	0	1
RightUpLeg	0	0	0	0	0	0	1
RightLeg	0	0	0	0	0	0	1
RightFoot	0	0	0	0	0	0	1
RightToeBase	0	0	0	0	0	0	1
[Hips]
5	14.21810341	1033.868652	9.410556793	0.09071672708	-9.342193604	-3.1055336	1.0
6	19.54921341	1032.172363	5.862442017	1.788221717	-11.0182972	-3.018345118	1.0
7	25.98520279	1027.729736	0.2866786718	4.102867603	-13.14500999	-2.940246582	1.0
8	33.46360779	1018.721619	-7.594022751	6.980392933	-15.61019325	-2.910809278	1.0
[Spine]
5	0	101.8159943	1.315000057	4.000216007	1.54422915	3.113651276	1.0
6	0	101.8159943	1.315000057	4.211596489	1.34867382	3.056570768	1.0
7	0	101.8159943	1.315000057	4.42107296	1.149536729	2.797199011	1.0
8	0	101.8159943	1.315000057	4.718329906	0.8935067654	2.290845156	1.0
[Spine1]
5	0	100.8349991	-10.00800037	1.41578424	0.2706832886	1.668166757	1.0
6	0	100.8349991	-10.00800037	1.515909791	0.157652393	1.675801396	1.0
7	0	100.8349991	-10.00800037	1.630265236	0.03622854501	1.630789399	1.0
8	0	100.8349991	-10.00800037	1.786254525	-0.1064124033	1.518026114	1.0
[Spine2]
5	0	91	-13.73399925	1.390281677	0.2928245962	1.674341559	1.0
6	0	91	-13.73399925	1.490259528	0.1790592223	1.683932662	1.0
7	0	91	-13.73399925	1.604355574	0.05677680299	1.641385674	1.0
8	0	91	-13.73399925	1.760403872	-0.08634084463	1.531345963	1.0
[Neck]
5	0	166.7169952	-25.16200066	4.809670925	0.2155390382	0.5841124654	1.0
6	0	166.7169952	-25.16200066	4.522121906	0.4380724132	0.8470995426	1.0
7	0	166.7169952	-25.16200066	3.928708553	0.7410387993	1.190815568	1.0
8	0	166.7169952	-25.16200066	2.785403967	1.142180443	1.600350976	1.0
[Head]
5	0	96.17900085	16.84999847	-10.07558632	3.284991026	-1.993017554	1.0
6	0	96.17900085	16.84999847	-10.98694038	4.516023159	-2.539220333	1.0
7	0	96.17900085	16.84999847	-12.0977602	6.101875782	-3.015779734	1.0
8	0	96.17900085	16.84999847	-13.42285252	8.017892838	-3.371072531	1.0
[LeftEye]
5	30.6760006	64.09500122	92.83599854	0	0	0	1.0
6	30.6760006	64.09500122	92.83599854	0	0	0	1.0
7	30.6760006	64.09500122	92.83599854	0	0	0	1.0
8	30.6760006	64.09500122	92.83599854	0	0	0	1.0
[RightEye]
5	-30.6760006	64.09500122	92.83499908	0	0	0	1.0
6	-30.6760006	64.09500122	92.83499908	0	0	0	1.0
7	-30.6760006	64.09500122	92.83499908	0	0	0	1.0
8	-30.6760006	64.09500122	92.83499908	0	0	0	1.0
[LeftShoulder]
5	45.70400238	109.4599991	-26.28000069	4.94227314	-16.62257767	-11.40282726	1.0
6	45.70400238	109.4599991	-26.28000069	4.889552116	-16.36545372	-10.59393024	1.0
7	45.70400238	109.4599991	-26.28000069	4.838698387	-16.06804276	-9.753168106	1.0
8	45.70400238	109.4599991	-26.28000069	4.790803909	-15.96757603	-8.906395912	1.0
[LeftArm]
5	105.923996	-5.24600029	-22.32099915	23.42391014	-7.201397896	-68.66645813	1.0
6	105.923996	-5.24600029	-22.32099915	23.73020554	-8.006669998	-67.81755066	1.0
7	105.923996	-5.24600029	-22.32099915	23.40538406	-8.754677773	-66.51270294	1.0
8	105.923996	-5.24600029	-22.32099915	22.51458549	-9.579162598	-64.71000671	1.0
[LeftForeArm]
5	278.414978	-0.0009999999311	0	-1.763381533e-06	-2.305641174	-0.0001971592137	1.0
6	278.414978	-0.0009999999311	0	-1.640327241e-06	-3.303451061	-0.0001978036889	1.0
7	278.414978	-0.0009999999311	0	-2.525204536e-06	-5.195675373	-0.0001987156866	1.0
8	278.414978	-0.0009999999311	0	-1.456689097e-05	-7.702501774	-0.0001959795482	1.0
[LeftHand]
5	283.2879944	0	0	-33.88450623	-1.929437518	-1.958161235	1.0
6	283.2879944	0	0	-34.19656372	-0.6119043827	-0.3696157932	1.0
7	283.2879944	0	0	-36.06201172	1.083761096	0.500376761	1.0
8	283.2879944	0	0	-40.34825134	3.961004734	0.7501864433	1.0
[LeftHandThumb1]
5	24.6609993	-15.75	26.8239994	-0.4889878333	2.201391459	4.818537712	1.0
6	24.6609993	-15.75	26.8239994	-0.4889889657	2.201391935	4.818544865	1.0
7	24.6609993	-15.75	26.8239994	-0.4889913499	2.201391935	4.818550587	1.0
8	24.6609993	-15.75	26.8239994	-0.4889915287	2.201386929	4.818540096	1.0
[LeftHandThumb2]
5	32.29800034	-18.64699936	18.64699936	21.74198723	21.31513214	23.92059708	1.0
6	32.29800034	-18.64699936	18.64699936	22.75620842	23.2379303	24.99803352	1.0
7	32.29800034	-18.64699936	18.64699936	24.71788216	27.59350204	27.02455902	1.0
8	32.29800034	-18.64699936	18.64699936	27.19085693	32.55381775	29.36977768	1.0
[LeftHandThumb3]
5	26.52600098	-15.31499958	15.31499958	-12.89037609	5.05738306	8.051040649	1.0
6	26.52600098	-15.31499958	15.31499958	-12.09365654	4.436311245	7.958378792	1.0
7	26.52600098	-15.31499958	15.31499958	-12.31529522	-0.1885798872	11.14094257	1.0
8	26.52600098	-15.31499958	15.31499958	-14.25200844	-9.384763718	19.3379631	1.0
[LeftHandThumb4]
5	19.54599953	-11.28499985	11.28499985	0	0	0	1.0
6	19.54599953	-11.28499985	11.28499985	0	0	0	1.0
7	19.54599953	-11.28499985	11.28499985	0	0	0	1.0
8	19.54599953	-11.28499985	11.28499985	0	0	0	1.0
[LeftHandIndex1]
5	91.09299469	-5.170999527	22.60099792	0.3038261533	0.03115079366	-10.48535442	1.0
6	91.09299469	-5.170999527	22.60099792	0.2253742963	0.009019429795	-11.1476202	1.0
7	91.09299469	-5.170999527	22.60099792	0.3019691408	0.8560711145	-14.1067934	1.0
8	91.09299469	-5.170999527	22.60099792	0.6360370517	2.838444948	-19.26133728	1.0
[LeftHandIndex2]
5	36.76399994	0	0	-0.2658827603	1.742546558	-17.34948349	1.0
6	36.76399994	0	0	-0.2655314505	1.741441488	-17.33806229	1.0
7	36.76399994	0	0	-0.26633811	1.744018674	-17.36460876	1.0
8	36.76399994	0	0	-0.266201973	1.743584037	-17.36009598	1.0
[LeftHandIndex3]
5	28.83100128	0	0	-0.05704720318	0.8146169782	-8.011421204	1.0
6	28.83100128	0	0	-0.05688106269	0.8134599924	-8.000000954	1.0
7	28.83100128	0	0	-0.05726121366	0.8161375523	-8.026495934	1.0
8	28.83100128	0	0	-0.0571953617	0.8156788349	-8.021958351	1.0
[LeftHandIndex4]
5	23.92700005	0	0	0	0	0	1.0
6	23.92700005	0	0	0	0	0	1.0
7	23.92700005	0	0	0	0	0	1.0
8	23.92700005	0	0	0	0	0	1.0
[LeftHandMiddle1]
5	95.33399963	0	0	-0.9172397256	2.930895329	-17.4978199	1.0
6	95.33399963	0	0	-0.9354045391	3.024088621	-17.75318909	1.0
7	95.33399963	0	0	-1.089214325	3.724714041	-19.90546799	1.0
8	95.33399963	0	0	-1.382478356	4.896588802	-23.69556427	1.0
[LeftHandMiddle2]
5	36.98199844	0	0	-0.2645886838	1.738417864	-17.30704498	1.0
6	36.98199844	0	0	-0.2643826604	1.737745881	-17.3001194	1.0
7	36.98199844	0	0	-0.2629163265	1.733036041	-17.25176811	1.0
8	36.98199844	0	0	-0.2616843581	1.729072928	-17.2110672	1.0
[LeftHandMiddle3]
5	29.50900078	0	0	-0.2959779799	1.836068749	-18.31339455	1.0
6	29.50900078	0	0	-0.2957294583	1.83531189	-18.30558205	1.0
7	29.50900078	0	0	-0.2942356169	1.830800176	-18.25893784	1.0
8	29.50900078	0	0	-0.2930741608	1.827285409	-18.22263145	1.0
[LeftHandMiddle4]
5	28.3390007	0	0	0	0	0	1.0
6	28.3390007	0	0	0	0	0	1.0
7	28.3390007	0	0	0	0	0	1.0
8	28.3390007	0	0	0	0	0	1.0
[LeftHandRing1]
5	91.04499817	-0.4390000105	-18.65100098	-1.328267336	3.749335289	-23.03027344	1.0
6	91.04499817	-0.4390000105	-18.65100098	-1.387331247	4.178091526	-23.77769089	1.0
7	91.04499817	-0.4390000105	-18.65100098	-1.536648989	5.245873451	-25.65104866	1.0
8	91.04499817	-0.4390000105	-18.65100098	-1.665430546	6.734928608	-27.23649025	1.0
[LeftHandRing2]
5	31.54000092	0	0	-0.3931643665	2.106951475	-21.13770294	1.0
6	31.54000092	0	0	-0.3988952637	2.121708393	-21.29319954	1.0
7	31.54000092	0	0	-0.4088194668	2.146967411	-21.55937004	1.0
8	31.54000092	0	0	-0.4128013849	2.157123089	-21.66645622	1.0
[LeftHandRing3]
5	29.37700081	0	0	-0.2888387144	1.814363956	-18.08922958	1.0
6	29.37700081	0	0	-0.2937046289	1.829184651	-18.24215317	1.0
7	29.37700081	0	0	-0.3022913337	1.855000496	-18.50922775	1.0
8	29.37700081	0	0	-0.3059228361	1.865945578	-18.62232208	1.0
[LeftHandRing4]
5	26.47500038	0	0	0	0	0	1.0
6	26.47500038	0	0	0	0	0	1.0
7	26.47500038	0	0	0	0	0	1.0
8	26.47500038	0	0	0	0	0	1.0
[LeftHandPinky1]
5	80.77799988	-4.887000084	-38.06099701	-1.802848101	4.6790452	-27.9423542	1.0
6	80.77799988	-4.887000084	-38.06099701	-1.764126897	4.510118961	-27.5191555	1.0
7	80.77799988	-4.887000084	-38.06099701	-1.800448418	4.847504616	-28.04240227	1.0
8	80.77799988	-4.887000084	-38.06099701	-1.931182265	6.538449287	-29.88375282	1.0
[LeftHandPinky2]
5	36	0	0	-0.2739953995	1.768307924	-17.61447525	1.0
6	36	0	0	-0.2743266821	1.769334197	-17.62506294	1.0
7	36	0	0	-0.2777713537	1.780160308	-17.73642731	1.0
8	36	0	0	-0.2759373784	1.774776578	-17.68066025	1.0
[LeftHandPinky3]
5	21.14200211	0	0	-0.2469217032	1.680682063	-16.7146759	1.0
6	21.14200211	0	0	-0.2472199053	1.681674838	-16.72489548	1.0
7	21.14200211	0	0	-0.2504673004	1.69244945	-16.83525276	1.0
8	21.14200211	0	0	-0.2487564236	1.687172294	-16.78090096	1.0
[LeftHandPinky4]
5	19.75699997	0	0	0	0	0	1.0
6	19.75699997	0	0	0	0	0	1.0
7	19.75699997	0	0	0	0	0	1.0
8	19.75699997	0	0	0	0	0	1.0
[RightShoulder]
5	-45.70000076	109.4620056	-26.28000069	5.006973267	14.61258602	15.15367222	1.0
6	-45.70000076	109.4620056	-26.28000069	4.978008747	14.71693802	15.09968948	1.0
7	-45.70000076	109.4620056	-26.28000069	4.941265583	14.69076824	15.05409622	1.0
8	-45.70000076	109.4620056	-26.28000069	4.863299847	14.51059818	14.80819225	1.0
[RightArm]
5	-105.9280014	-5.248000145	-22.32099915	25.96746635	1.352541089	56.59585953	1.0
6	-105.9280014	-5.248000145	-22.32099915	24.75198555	1.276441336	54.78750992	1.0
7	-105.9280014	-5.248000145	-22.32099915	23.76561165	1.476086497	53.06119156	1.0
8	-105.9280014	-5.248000145	-22.32099915	23.12398529	1.886418581	51.73934174	1.0
[RightForeArm]
5	-278.414978	0	0	-3.99934288e-06	18.15932083	-1.418579905e-05	1.0
6	-278.414978	0	0	1.399884809e-06	21.04683304	2.031966233e-06	1.0
7	-278.414978	0	0	7.004961844e-06	23.91158676	9.039296856e-06	1.0
8	-278.414978	0	0	1.458852807e-06	27.12787819	1.275859267e-05	1.0
[RightHand]
5	-283.2879944	0	0.0009999999311	-19.83465576	0.4318952858	-6.090308666	1.0
6	-283.2879944	0	0.0009999999311	-20.22006989	-0.02591672167	-9.764110565	1.0
7	-283.2879944	0	0.0009999999311	-20.23841667	-1.056280375	-13.45196438	1.0
8	-283.2879944	0	0.0009999999311	-19.83469772	-2.521008015	-17.82189941	1.0
[RightHandPinky1]
5	-80.76699829	-4.885000229	-38.06000137	-2.058493137	-3.21543026	29.27318764	1.0
6	-80.76699829	-4.885000229	-38.06000137	-2.122371674	-3.022076607	29.54012489	1.0
7	-80.76699829	-4.885000229	-38.06000137	-2.221127272	-2.778334379	30.08874893	1.0
8	-80.76699829	-4.885000229	-38.06000137	-2.471292496	-2.171013832	31.48195457	1.0
[RightHandPinky2]
5	-36	0	0.0009999999311	-0.215291515	-1.396887422	17.54171181	1.0
6	-36	0	0.0009999999311	-0.2220770419	-1.418210149	17.81807518	1.0
7	-36	0	0.0009999999311	-0.2241822183	-1.424774408	17.90321922	1.0
8	-36	0	0.0009999999311	-0.2199962884	-1.41168046	17.73343468	1.0
[RightHandPinky3]
5	-21.14200211	0	0	-0.1939972937	-1.327582002	16.62632942	1.0
6	-21.14200211	0	0	-0.2003975809	-1.348849893	16.90070534	1.0
7	-21.14200211	0	0	-0.2023232281	-1.355169058	16.98238945	1.0
8	-21.14200211	0	0	-0.1981021315	-1.341212273	16.80225182	1.0
[RightHandPinky4]
5	-19.75699997	0	0	0	0	0	1.0
6	-19.75699997	0	0	0	0	0	1.0
7	-19.75699997	0	0	0	0	0	1.0
8	-19.75699997	0	0	0	0	0	1.0
[RightHandRing1]
5	-91.03599548	-0.4390000105	-18.65100098	-1.209922552	-2.147461891	22.94755936	1.0
6	-91.03599548	-0.4390000105	-18.65100098	-1.256677747	-1.997726202	23.63204956	1.0
7	-91.03599548	-0.4390000105	-18.65100098	-1.342847347	-1.500789285	24.87389946	1.0
8	-91.03599548	-0.4390000105	-18.65100098	-1.460825324	-0.554420352	26.57393646	1.0
[RightHandRing2]
5	-31.54000092	0	0	-0.3276573718	-1.71247983	21.66194916	1.0
6	-31.54000092	0	0	-0.3384614885	-1.73943007	22.02066612	1.0
7	-31.54000092	0	0	-0.3472110033	-1.760908484	22.30727005	1.0
8	-31.54000092	0	0	-0.3569957316	-1.784581184	22.62385368	1.0
[RightHandRing3]
5	-29.37700081	0	0	-0.242653504	-1.480738401	18.6116848	1.0
6	-29.37700081	0	0	-0.2520063818	-1.50822103	18.97043228	1.0
7	-29.37700081	0	0	-0.2596985102	-1.530419707	19.26066589	1.0
8	-29.37700081	0	0	-0.2684733868	-1.555318952	19.58679008	1.0
[RightHandRing4]
5	-26.47500038	0	0	0	0	0	1.0
6	-26.47500038	0	0	0	0	0	1.0
7	-26.47500038	0	0	0	0	0	1.0
8	-26.47500038	0	0	0	0	0	1.0
[RightHandMiddle1]
5	-95.32500458	0	0	-0.8412463665	-2.093512774	17.30851173	1.0
6	-95.32500458	0	0	-0.8506820798	-2.376459122	17.452034	1.0
7	-95.32500458	0	0	-0.9090878963	-2.464998007	18.37649155	1.0
8	-95.32500458	0	0	-1.029844642	-2.121091366	20.25035095	1.0
[RightHandMiddle2]
5	-36.98199844	0	0	-0.2230888009	-1.421344519	17.83914757	1.0
6	-36.98199844	0	0	-0.2323261052	-1.44973278	18.20796013	1.0
7	-36.98199844	0	0	-0.2477917075	-1.496005058	18.81071854	1.0
8	-36.98199844	0	0	-0.2698187232	-1.559366107	19.63948631	1.0
[RightHandMiddle3]
5	-29.50900078	0	0	-0.2488316149	-1.500995517	18.84957123	1.0
6	-29.50900078	0	0	-0.2585239112	-1.529069901	19.21654892	1.0
7	-29.50900078	0	0	-0.2747918069	-1.575053811	19.81914711	1.0
8	-29.50900078	0	0	-0.2980555594	-1.638334513	20.65210152	1.0
[RightHandMiddle4]
5	-28.3390007	0	0.0009999999311	0	0	0	1.0
6	-28.3390007	0	0.0009999999311	0	0	0	1.0
7	-28.3390007	0	0.0009999999311	0	0	0	1.0
8	-28.3390007	0	0.0009999999311	0	0	0	1.0
[RightHandIndex1]
5	-91.08300018	-5.167999744	22.60099792	-0.168792367	1.322170138	10.25889111	1.0
6	-91.08300018	-5.167999744	22.60099792	-0.3401787579	1.377656102	11.46200275	1.0
7	-91.08300018	-5.167999744	22.60099792	-0.5665056109	1.681105137	13.64614391	1.0
8	-91.08300018	-5.167999744	22.60099792	-0.7683529854	2.399945021	16.31630707	1.0
[RightHandIndex2]
5	-36.76399994	0	0	-0.2165198922	-1.400804877	17.57278824	1.0
6	-36.76399994	0	0	-0.2171664983	-1.402846336	17.59914398	1.0
7	-36.76399994	0	0	-0.2159214914	-1.398901939	17.5480938	1.0
8	-36.76399994	0	0	-0.2150228769	-1.39608252	17.51159096	1.0
[RightHandIndex3]
5	-28.83100128	0	0	-0.04764509946	-0.6632657051	8.217556	1.0
6	-28.83100128	0	0	-0.04788913578	-0.6649534106	8.238550186	1.0
7	-28.83100128	0	0	-0.04743368551	-0.6617902517	8.199170113	1.0
8	-28.83100128	0	0	-0.04757110402	-0.662822485	8.211992264	1.0
[RightHandIndex4]
5	-23.92700005	0	0	0	0	0	1.0
6	-23.92700005	0	0	0	0	0	1.0
7	-23.92700005	0	0	0	0	0	1.0
8	-23.92700005	0	0	0	0	0	1.0
[RightHandThumb1]
5	-24.64799881	-15.72700024	26.82600021	-1.658455253	-0.2891456783	-4.22133255	1.0
6	-24.64799881	-15.72700024	26.82600021	-1.658457637	-0.2891513109	-4.22135067	1.0
7	-24.64799881	-15.72700024	26.82600021	-1.658458114	-0.2891415656	-4.221335411	1.0
8	-24.64799881	-15.72700024	26.82600021	-1.658450723	-0.2891553938	-4.221337318	1.0
[RightHandThumb2]
5	-32.29800034	-18.64699936	18.64699936	21.14338112	-21.47304153	-23.20750046	1.0
6	-32.29800034	-18.64699936	18.64699936	20.92945862	-21.19848442	-22.54525185	1.0
7	-32.29800034	-18.64699936	18.64699936	20.37603569	-20.13497925	-21.66828156	1.0
8	-32.29800034	-18.64699936	18.64699936	19.55406952	-18.20388603	-20.9834137	1.0
[RightHandThumb3]
5	-26.52600098	-15.31399918	15.31399918	-14.5489378	-6.620876789	-11.64542294	1.0
6	-26.52600098	-15.31399918	15.31399918	-14.58500767	-6.518811226	-11.588624	1.0
7	-26.52600098	-15.31399918	15.31399918	-14.62466049	-6.401592255	-11.50035191	1.0
8	-26.52600098	-15.31399918	15.31399918	-14.64065266	-6.392934322	-11.6635313	1.0
[RightHandThumb4]
5	-19.54599953	-11.28499985	11.28499985	0	0	0	1.0
6	-19.54599953	-11.28499985	11.28499985	0	0	0	1.0
7	-19.54599953	-11.28499985	11.28499985	0	0	0	1.0
8	-19.54599953	-11.28499985	11.28499985	0	0	0	1.0
[LeftUpLeg]
5	82.07800293	-67.51699829	-15.99599934	-11.60037613	17.97200012	6.851417065	1.0
6	82.07800293	-67.51699829	-15.99599934	-13.86170101	18.36305618	6.330445766	1.0
7	82.07800293	-67.51699829	-15.99599934	-17.74215317	18.84176254	5.668997765	1.0
8	82.07800293	-67.51699829	-15.99599934	-23.34340668	19.49814034	4.843384266	1.0
[LeftLeg]
5	0	-443.7049866	2.845999956	12.69814491	4.065342426	3.172448874	1.0
6	0	-443.7049866	2.845999956	13.88548374	5.605901241	2.996989012	1.0
7	0	-443.7049866	2.845999956	16.87179184	7.531944752	3.040119886	1.0
8	0	-443.7049866	2.845999956	21.82247162	8.789297104	3.183682442	1.0
[LeftFoot]
5	0	-444.2789917	-29.8219986	1.057636499	0.6041810513	-5.484690189	1.0
6	0	-444.2789917	-29.8219986	0.6136881113	0.5484473705	-4.990968704	1.0
7	0	-444.2789917	-29.8219986	-0.5737964511	0.4229638278	-4.498254776	1.0
8	0	-444.2789917	-29.8219986	-2.624960899	1.078648686	-4.09577322	1.0
[LeftToeBase]
5	0	-87.28699493	107.1060028	-4.928523064	7.259357062e-07	4.028681246e-07	1.0
6	0	-87.28699493	107.1060028	-4.928528786	5.786951988e-06	3.744515595e-07	1.0
7	0	-87.28699493	107.1060028	-4.928525925	-4.40456688e-06	-6.771034577e-07	1.0
8	0	-87.28699493	107.1060028	-4.92852354	-1.465958803e-06	1.616088596e-08	1.0
[RightUpLeg]
5	-82.07800293	-67.51699829	-15.99599934	-4.54599905	-9.062828064	2.910415888	1.0
6	-82.07800293	-67.51699829	-15.99599934	-7.548054218	-7.840968132	2.883130312	1.0
7	-82.07800293	-67.51699829	-15.99599934	-12.43091869	-6.251608372	2.741915941	1.0
8	-82.07800293	-67.51699829	-15.99599934	-19.08996773	-4.594616413	2.366267681	1.0
[RightLeg]
5	0	-443.7049866	2.861999989	8.106013298	-7.882462025	-4.199966908	1.0
6	0	-443.7049866	2.861999989	9.603964806	-7.245311737	-4.477222919	1.0
7	0	-443.7049866	2.861999989	13.17218018	-6.389020443	-4.792050838	1.0
8	0	-443.7049866	2.861999989	18.69544601	-5.219310284	-4.774429798	1.0
[RightFoot]
5	0	-444.2770081	-29.83799934	-2.571877718	-0.0234001521	3.550542116	1.0
6	0	-444.2770081	-29.83799934	-2.676862955	0.008301493712	3.857419729	1.0
7	0	-444.2770081	-29.83799934	-3.568770409	0.08787123114	4.193454266	1.0
8	0	-444.2770081	-29.83799934	-5.220069408	0.2025837004	4.403675556	1.0
[RightToeBase]
5	0	-87.28699493	107.1060028	-7.330854416	-5.902774774e-06	-4.770349733e-07	1.0
6	0	-87.28699493	107.1060028	-7.350698471	6.129380381e-06	-5.723283039e-07	1.0
7	0	-87.28699493	107.1060028	-7.370234966	-6.089727776e-06	4.719928768e-07	1.0
8	0	-87.28699493	107.1060028	-7.387818813	-1.002425947e-07	-1.314924845e-07	1.0
[EndOfFile]
